<?xml version="1.0" encoding="utf-8"?>
<!-- Generator: Adobe Illustrator 25.0.0, SVG Export Plug-In . SVG Version: 6.00 Build 0)  -->
<svg version="1.1" id="Layer_1" xmlns="http://www.w3.org/2000/svg" xmlns:xlink="http://www.w3.org/1999/xlink" x="0px" y="0px"
	 viewBox="0 0 286.5 125.6" style="enable-background:new 0 0 286.5 125.6;" xml:space="preserve">
<style type="text/css">
	.st0{stroke:#000000;stroke-miterlimit:10;}
	.st1{fill:#FFFFFF;}
</style>
<path class="st0" d="M260.5,97.5H24.9c-5.5,0-10-4.5-10-10V27.3c0-5.5,4.5-10,10-10h235.6c5.5,0,10,4.5,10,10v60.2
	C270.5,93,266,97.5,260.5,97.5z"/>
<g>
	<path class="st1" d="M31.4,40.8c1.6-0.3,3.7-0.6,5.9-0.6c3.4,0,6,0.5,7.9,2.2c1.7,1.5,2.5,3.9,2.5,6.4c0,3.1-0.9,5.3-2.5,7
		c-1.8,1.9-4.7,2.8-7,2.8c-0.4,0-0.8,0-1.1,0v10.8h-5.6V40.8z M37,53.9c0.3,0.1,0.6,0.1,0.9,0.1c2.8,0,4.1-2,4.1-4.7
		c0-2.5-1-4.5-3.7-4.5c-0.5,0-1,0.1-1.4,0.2V53.9z"/>
	<path class="st1" d="M65.8,62.9c0,2.2,0.1,4.4,0.2,6.4h-4.9l-0.3-2.2h-0.1c-1,1.4-2.7,2.6-4.9,2.6c-4,0-5.6-3-5.6-8.6V48.3h5.7
		v12.1c0,2.8,0.5,4.5,2.1,4.5c0.9,0,1.5-0.7,1.8-1.4c0.2-0.4,0.3-1.1,0.3-1.8V48.3h5.6V62.9z"/>
	<path class="st1" d="M69.8,54.6c0-2.1-0.1-4.4-0.2-6.3h4.9l0.3,3.1H75c0.9-2.2,2.6-3.4,4.2-3.4c0.6,0,0.9,0,1.2,0.1v5.6
		c-0.3-0.1-0.7-0.1-1.2-0.1c-1.2,0-2.8,0.8-3.4,3c-0.1,0.5-0.2,1.2-0.2,2.1v10.7h-5.7V54.6z"/>
	<path class="st1" d="M87,60.8c0.1,3.3,2,4.5,4.5,4.5c1.6,0,3-0.3,4-0.7l0.8,4c-1.5,0.6-3.7,0.9-5.8,0.9c-5.7,0-8.9-3.8-8.9-10.4
		c0-7,3.7-11.3,8.4-11.3c4.5,0,7.1,3.6,7.1,9.9c0,1.5,0,2.3-0.2,2.9H87z M92,56.8c0-2.7-0.7-4.8-2.4-4.8c-1.8,0-2.6,2.7-2.6,4.8H92z
		"/>
	<path class="st1" d="M114.7,68.9c-0.8,0.4-2.4,0.7-4.4,0.7c-7.4,0-10.9-6.1-10.9-14.3c0-10.9,6.1-15.2,11.7-15.2
		c2,0,3.4,0.4,3.9,0.8l-0.9,4.7c-0.6-0.3-1.4-0.6-2.6-0.6c-3.2,0-6.1,2.8-6.1,9.9c0,6.9,2.6,9.6,6.1,9.6c0.9,0,2-0.2,2.7-0.4
		L114.7,68.9z"/>
	<path class="st1" d="M117.2,63.5c1.2,0.6,3.1,1.1,4.8,1.1c2.7,0,4-1.4,4-3.3c0-2.1-1.3-3.1-3.7-4.7c-4-2.4-5.5-5.5-5.5-8.1
		c0-4.6,3.1-8.5,9.2-8.5c1.9,0,3.7,0.5,4.6,1l-0.9,4.9c-0.8-0.5-2.1-1-3.7-1c-2.4,0-3.6,1.5-3.6,3c0,1.7,0.9,2.6,4,4.5
		c3.8,2.3,5.2,5.2,5.2,8.3c0,5.3-3.9,8.8-9.6,8.8c-2.3,0-4.6-0.6-5.5-1.2L117.2,63.5z"/>
	<path class="st1" d="M134.1,63.5c1.2,0.6,3.1,1.1,4.8,1.1c2.7,0,4-1.4,4-3.3c0-2.1-1.3-3.1-3.7-4.7c-4-2.4-5.5-5.5-5.5-8.1
		c0-4.6,3.1-8.5,9.2-8.5c1.9,0,3.7,0.5,4.6,1l-0.9,4.9c-0.8-0.5-2.1-1-3.7-1c-2.4,0-3.6,1.5-3.6,3c0,1.7,0.9,2.6,4,4.5
		c3.8,2.3,5.2,5.2,5.2,8.3c0,5.3-3.9,8.8-9.6,8.8c-2.3,0-4.6-0.6-5.5-1.2L134.1,63.5z"/>
	<path class="st1" d="M154.8,45.5h-5.1v-5.2h15.9v5.2h-5.2v23.8h-5.6V45.5z"/>
	<path class="st1" d="M181.4,58.7c0,8.8-4.9,10.9-8,10.9c-5,0-8-4-8-10.8c0-7.6,4-10.9,8.1-10.9C178.4,47.9,181.4,52.1,181.4,58.7z
		 M171,58.7c0,3.6,0.6,6.6,2.6,6.6c1.8,0,2.3-3.5,2.3-6.6c0-2.9-0.5-6.5-2.4-6.5C171.4,52.2,171,55.8,171,58.7z"/>
	<path class="st1" d="M200,58.7c0,8.8-4.9,10.9-8,10.9c-5,0-8-4-8-10.8c0-7.6,4-10.9,8.1-10.9C197,47.9,200,52.1,200,58.7z
		 M189.5,58.7c0,3.6,0.6,6.6,2.6,6.6c1.8,0,2.3-3.5,2.3-6.6c0-2.9-0.5-6.5-2.4-6.5C189.9,52.2,189.5,55.8,189.5,58.7z"/>
	<path class="st1" d="M203.2,39.6h5.6v29.7h-5.6V39.6z"/>
	<path class="st1" d="M216.5,45.5h-5.1v-5.2h15.9v5.2h-5.2v23.8h-5.6V45.5z"/>
	<path class="st1" d="M235.5,42.7c0,1.8-1.2,3.1-3,3.1c-1.5,0-2.8-1.2-2.8-3.1c0-1.9,1.3-3.1,2.9-3.1
		C234.3,39.6,235.5,40.8,235.5,42.7z M229.9,69.3v-21h5.6v21H229.9z"/>
	<path class="st1" d="M239.4,54.9c0-2.5-0.1-4.7-0.2-6.7h4.9l0.3,2.4h0.1c0.9-1.7,2.4-2.8,4.4-2.8c4.6,0,6.5,5,6.5,10.8
		c0,7.5-3.3,10.9-6.8,10.9c-1.7,0-2.9-1.1-3.5-2.1h-0.1v10h-5.6V54.9z M245.1,61.6c0,0.7,0.1,1.4,0.3,1.8c0.4,1.3,1.2,1.6,1.8,1.6
		c2,0,2.7-2.9,2.7-6.2c0-4-0.9-6.1-2.6-6.1c-0.9,0-1.7,0.8-1.9,1.8c-0.2,0.4-0.3,1-0.3,1.5V61.6z"/>
</g>
<polygon class="st0" points="140.1,110 124.4,90.3 155.9,90.3 "/>
</svg>
